HIERARCHY
ROOT Hips
{
	OFFSET	0.00	0.00	0.00
	CHANNELS 6 Xposition Yposition Zposition Zrotation Xrotation Yrotation
	JOINT LeftUpLeg
	{
		OFFSET	 0.126116	-0.014019	-0.065224
		CHANNELS 3 Zrotation Xrotation Yrotation
		JOINT LeftLeg
		{
			OFFSET	 0.000000	 0.000000	 0.569914
			CHANNELS 3 Zrotation Xrotation Yrotation
			JOINT LeftFoot
			{
				OFFSET	 0.000000	 0.000000	 0.544423
				CHANNELS 3 Zrotation Xrotation Yrotation
				JOINT LeftToeBase
				{
					OFFSET	 0.000000	 0.000000	 0.207117
					CHANNELS 3 Zrotation Xrotation Yrotation
					End Site
					{
						OFFSET	 0.000000	 0.000000	 0.207117
					}
				}
			}
		}
	}
	JOINT RightUpLeg
	{
		OFFSET	-0.124023	-0.008373	-0.065224
		CHANNELS 3 Zrotation Xrotation Yrotation
		JOINT RightLeg
		{
			OFFSET	 0.000000	 0.000000	 0.570047
			CHANNELS 3 Zrotation Xrotation Yrotation
			JOINT RightFoot
			{
				OFFSET	 0.000000	 0.000000	 0.544354
				CHANNELS 3 Zrotation Xrotation Yrotation
				JOINT RightToeBase
				{
					OFFSET	 0.000000	 0.000000	 0.207540
					CHANNELS 3 Zrotation Xrotation Yrotation
					End Site
					{
						OFFSET	 0.000000	 0.000000	 0.207540
					}
				}
			}
		}
	}
	JOINT Spine
	{
		OFFSET	 0.000184	-0.007763	 0.117403
		CHANNELS 3 Zrotation Xrotation Yrotation
		JOINT Spine1
		{
			OFFSET	 0.000000	 0.000000	 0.137269
			CHANNELS 3 Zrotation Xrotation Yrotation
			JOINT Spine2
			{
				OFFSET	 0.000000	 0.000000	 0.156879
				CHANNELS 3 Zrotation Xrotation Yrotation
				JOINT LeftShoulder
				{
					OFFSET	 0.080501	-0.002496	 0.160144
					CHANNELS 3 Zrotation Xrotation Yrotation
					JOINT LeftArm
					{
						OFFSET	 0.000000	 0.000000	 0.164363
						CHANNELS 3 Zrotation Xrotation Yrotation
						JOINT LeftForeArm
						{
							OFFSET	 0.000000	 0.000000	 0.364576
							CHANNELS 3 Zrotation Xrotation Yrotation
							JOINT LeftHand
							{
								OFFSET	 0.000000	 0.000000	 0.360812
								CHANNELS 3 Zrotation Xrotation Yrotation
								JOINT LeftHandIndex1
								{
									OFFSET	 0.000000	 0.000000	 0.086006
									CHANNELS 3 Zrotation Xrotation Yrotation
									JOINT LeftHandIndex2
									{
										OFFSET	 0.000000	 0.000000	 0.047236
										CHANNELS 3 Zrotation Xrotation Yrotation
										JOINT LeftHandIndex3
										{
											OFFSET	-0.004284	-0.000551	 0.038166
											CHANNELS 3 Zrotation Xrotation Yrotation
											End Site
											{
												OFFSET	-0.004284	-0.000551	 0.038166
											}
										}
									}
								}
							}
						}
					}
				}
				JOINT Neck
				{
					OFFSET	 0.000000	 0.000000	 0.176489
					CHANNELS 3 Zrotation Xrotation Yrotation
					JOINT Head
					{
						OFFSET	 0.000000	-0.001747	 0.077940
						CHANNELS 3 Zrotation Xrotation Yrotation
						End Site
						{
							OFFSET	 0.000000	-0.001747	 0.077940
						}
					}
				}
				JOINT RightShoulder
				{
					OFFSET	-0.080363	 0.000306	 0.159706
					CHANNELS 3 Zrotation Xrotation Yrotation
					JOINT RightArm
					{
						OFFSET	 0.000000	 0.000000	 0.164196
						CHANNELS 3 Zrotation Xrotation Yrotation
						JOINT RightForeArm
						{
							OFFSET	 0.000000	 0.000000	 0.365611
							CHANNELS 3 Zrotation Xrotation Yrotation
							JOINT RightHand
							{
								OFFSET	 0.000000	 0.000000	 0.360648
								CHANNELS 3 Zrotation Xrotation Yrotation
								JOINT RightHandIndex1
								{
									OFFSET	 0.000000	 0.000000	 0.069977
									CHANNELS 3 Zrotation Xrotation Yrotation
									JOINT RightHandIndex2
									{
										OFFSET	 0.000000	 0.000000	 0.052305
										CHANNELS 3 Zrotation Xrotation Yrotation
										JOINT RightHandIndex3
										{
											OFFSET	 0.009002	-0.000782	 0.042196
											CHANNELS 3 Zrotation Xrotation Yrotation
											End Site
											{
												OFFSET	 0.009002	-0.000782	 0.042196
											}
										}
									}
								}
							}
						}
					}
				}
			}
		}
	}
}
MOTION
Frames:    8
Frame Time: 0.03333334
-0.057448	-2.226218	 1.243683	 3.902150	-1.811478	-3.193892	 1.706371	-7.852905	-171.709100	 0.176246	-29.192490	-0.089911	 22.344980	 70.273220	-25.045410	-2.371704	 31.223810	-0.061096	-3.647462	-28.346940	-175.569200	 10.051900	-53.698630	 8.765618	 8.158341	 62.669010	-3.619025	 2.357703	 33.185300	 0.107530	-8.295517	 9.024104	 1.764160	-0.552931	 2.382127	 0.471757	-1.420898	-2.249755	-0.683694	-93.735040	 58.826190	 175.837800	 18.878230	 39.497060	-37.617700	-14.097490	 2.834123	-11.408950	 5.192058	-47.349270	-0.781471	-4.869230	 19.256500	-2.789685	-3.891292	 21.347640	 2.212678	-4.807055	 5.559719	 0.146138	-0.135261	-5.003930	 0.153734	-3.672998	 2.350956	 2.736318	 89.844440	 61.550700	-179.851800	-20.794680	 52.265240	 12.066060	 11.950740	 3.383384	 23.021510	-12.551810	-33.115480	-3.540397	 6.306342	 26.143920	-0.578128	 1.708929	 46.088820	-6.835108	 0.319158	 25.177320	 3.674568
-0.059160	-2.265767	 1.244567	 4.980707	-1.242957	-3.071716	 0.570311	-6.278426	-172.091000	 0.866173	-28.546130	 0.245368	 22.361980	 71.131640	-25.668950	-2.369722	 31.560500	-0.068691	-5.973444	-31.113280	-175.686000	 10.239050	-48.956800	 8.338083	 10.419860	 66.792820	-6.972600	 2.358796	 33.026210	 0.103831	-8.991554	 8.756218	 1.727751	-0.933803	 2.118104	 0.050874	-0.693857	-2.291895	-0.192286	-93.937860	 59.000660	 175.384700	 18.307290	 37.122960	-39.532730	-15.318800	 2.849001	-11.415390	 4.988778	-49.051170	-2.463006	-4.869052	 19.248540	-2.786520	-3.884000	 21.441220	 2.205259	-4.808270	 5.545386	 0.146975	-0.075538	-5.075550	 0.184332	-2.759897	 2.262811	 2.560104	 89.779090	 61.649310	 179.992800	-20.309310	 53.293030	 10.517520	 11.655300	 3.274384	 21.831320	-13.606550	-33.602190	-4.398364	 6.293625	 24.834710	-0.539814	 1.890795	 44.657860	-6.997833	 0.540515	 24.213680	 3.561063
-0.061025	-2.305840	 1.243476	 5.889630	-0.398786	-3.038993	-0.378438	-4.995305	-172.411000	 1.205521	-27.962600	 0.399902	 22.370290	 71.955350	-25.929840	-2.368146	 31.821930	-0.074620	-8.448298	-33.764530	-176.088800	 10.495820	-43.024680	 7.731601	 13.069530	 69.715370	-10.916190	 2.359042	 32.988900	 0.102968	-9.303517	 8.177091	 1.576023	-1.281902	 2.021673	-0.098473	-0.054415	-2.407731	 0.148383	-94.161290	 59.019930	 174.905400	 17.288430	 34.674810	-41.257090	-15.707080	 2.851883	-11.412460	 5.883850	-50.383670	-2.841168	-4.862523	 19.425330	-2.800184	-3.871571	 21.599990	 2.192636	-4.803282	 5.604161	 0.143533	-0.028126	-5.112856	 0.246808	-1.978974	 2.183473	 2.468535	 89.695270	 61.751080	 179.792200	-19.765030	 54.260850	 8.660247	 11.035360	 3.136898	 21.384550	-15.027000	-33.694690	-5.282729	 6.271667	 23.224410	-0.556270	 2.078554	 43.090980	-7.164411	 0.868430	 22.755030	 3.398565
-0.062769	-2.349299	 1.240580	 6.382012	 0.448426	-3.308811	-0.946930	-3.380844	-172.450500	 1.420987	-27.160660	 0.487691	 22.884480	 73.249660	-26.686000	-2.365667	 32.220710	-0.083715	-9.746035	-35.774490	-176.273200	 10.525280	-35.677170	 6.637125	 15.065350	 69.077150	-14.464870	 2.361259	 32.658420	 0.095310	-9.157269	 7.485580	 1.702676	-1.575025	 2.191755	-0.231453	 0.571054	-2.542738	 0.442034	-94.360820	 58.950420	 174.490400	 15.984530	 32.183740	-43.059960	-16.495370	 2.853130	-11.401300	 7.604800	-51.399470	-1.174156	-4.847051	 19.789400	-2.818018	-3.851990	 21.848820	 2.172742	-4.791373	 5.744385	 0.135308	-0.006050	-5.179945	 0.311539	-1.299297	 2.101041	 2.482966	 89.564250	 61.912230	 179.475600	-18.963250	 55.165410	 6.786131	 9.872586	 2.908466	 20.930120	-17.094030	-33.059360	-6.726194	 6.239184	 21.299810	-0.618180	 2.250239	 41.572680	-7.315338	 1.288063	 20.834720	 3.200886
-0.065039	-2.395170	 1.236353	 6.548186	 0.917680	-3.589133	-1.232222	-1.192835	-172.521700	 1.536014	-26.413770	 0.526451	 23.200360	 74.302220	-27.088670	-2.359235	 33.197060	-0.106241	-8.956969	-36.592510	-175.933600	 9.860222	-28.088850	 5.044400	 24.839730	 71.863590	-24.957750	 2.353356	 33.800800	 0.121947	-8.852672	 6.898769	 1.912504	-1.829274	 2.788512	-0.388645	 1.178595	-2.758200	 0.717715	-94.472040	 58.873660	 174.266000	 14.406080	 30.232780	-44.615410	-17.156150	 2.846709	-11.376080	 9.022154	-51.270680	 0.553211	-4.827095	 20.190750	-2.822533	-3.825623	 22.181470	 2.145956	-4.771617	 5.976337	 0.121629	 0.021108	-5.271437	 0.341117	-0.674107	 1.981464	 2.477083	 89.453880	 62.023560	 179.206600	-17.760730	 55.796760	 5.210413	 8.500269	 2.664724	 19.463890	-19.262650	-31.910110	-8.576427	 6.198887	 19.193960	-0.702974	 2.514058	 39.066180	-7.544343	 1.741583	 18.693120	 3.000860
-0.068398	-2.442590	 1.229684	 6.789816	 1.041478	-3.797251	-1.645087	 1.380584	-172.719200	 1.725310	-25.899640	 0.599634	 22.570830	 74.899270	-26.571230	-2.343392	 35.314220	-0.156460	-8.416436	-38.527450	-175.703800	 10.151410	-23.801810	 4.447761	 29.256630	 71.419710	-30.355940	 2.339144	 35.625950	 0.165697	-8.686157	 6.829470	 2.085383	-2.058578	 3.051895	-0.490958	 1.726052	-3.013556	 0.939213	-94.532870	 58.889690	 174.134200	 12.835960	 29.061900	-45.810990	-17.250390	 2.829039	-11.340240	 9.719166	-51.058880	 1.122055	-4.838316	 20.441490	-2.961378	-3.797570	 22.532130	 2.117466	-4.743114	 6.309587	 0.101822	 0.084096	-5.367413	 0.353075	-0.071360	 1.907237	 2.300221	 89.376620	 61.992910	 179.021100	-16.291590	 56.141630	 3.175459	 7.247223	 2.497139	 18.130830	-20.876330	-30.600400	-10.243680	 6.170066	 17.016230	-0.704076	 2.787685	 36.222480	-7.777597	 2.193921	 16.490990	 2.816193
-0.073453	-2.492615	 1.220749	 7.027292	 1.028976	-3.626380	-2.175062	 3.999469	-173.368600	 2.135251	-25.964100	 0.780610	 19.775110	 74.451020	-23.956250	-2.303962	 39.471090	-0.261546	-8.115331	-41.684880	-176.030600	 10.121240	-22.752070	 4.250950	 22.711970	 67.420130	-24.074970	 2.337600	 35.809440	 0.170176	-8.556886	 6.806907	 2.007417	-2.222450	 3.427387	-0.681384	 2.193016	-3.265354	 1.143022	-94.528500	 59.112210	 174.106600	 11.333060	 28.514780	-46.905710	-17.226620	 2.802851	-11.291390	 9.783057	-50.526960	 0.925865	-4.867098	 20.569080	-3.166618	-3.772438	 22.843470	 2.091950	-4.703725	 6.767548	 0.074311	 0.156431	-5.455791	 0.301650	 0.519908	 1.892848	 2.139936	 89.356720	 61.757390	 178.981900	-14.970140	 56.215520	 0.448768	 6.054338	 2.299941	 18.429000	-22.067790	-28.885060	-11.481420	 6.178537	 14.794900	-0.518618	 2.969868	 34.177750	-7.930120	 2.630882	 14.304230	 2.652584
-0.080457	-2.549873	 1.210835	 7.282122	 0.761592	-2.843650	-2.491112	 6.921483	-174.825300	 1.904985	-26.708890	 0.697817	 15.245120	 72.407660	-18.756980	-2.193806	 47.163780	-0.487580	-6.732829	-43.242980	-176.465700	 7.389238	-21.958560	 3.064295	 12.866150	 60.464760	-10.953080	 2.340333	 35.483030	 0.162212	-8.430541	 6.847832	 1.327795	-2.384655	 3.939982	-0.765240	 2.555290	-3.384073	 1.195634	-94.469280	 59.331300	 174.196900	 10.025660	 28.264500	-47.709590	-17.357050	 2.766935	-11.221650	 9.932652	-48.470990	 0.777564	-4.889689	 20.688570	-3.335989	-3.756394	 23.040950	 2.075663	-4.648411	 7.405723	 0.035393	 0.241212	-5.477112	 0.250195	 1.080358	 2.002837	 2.255815	 89.354240	 61.478020	 178.986200	-13.876120	 56.056530	-1.617757	 4.927138	 2.120951	 18.220620	-22.948490	-26.457110	-12.006490	 6.250647	 12.476850	-0.074565	 3.105389	 32.572260	-8.041965	 3.041178	 12.201250	 2.512787
